<svg width="1024" height="1024" viewBox="0 0 1024 1024" fill="none" xmlns="http://www.w3.org/2000/svg">
<path d="M367.931 506.012C368.006 536.987 368.092 567.962 368.152 598.938C368.18 613.095 368.227 627.253 368.141 641.41C368.03 659.503 356.388 670.877 338.251 670.865C322.262 670.854 306.272 670.945 290.282 670.966C274.632 670.986 262.938 660.534 261.626 644.872C261.071 638.255 261.406 631.559 261.408 624.899C261.424 585.592 261.461 546.284 262.03 506.493C297.689 506.01 332.81 506.011 367.931 506.012Z" fill="#252324"/>
<path d="M641.995 505.999C641.908 486.523 641.793 467.047 641.743 447.57C641.687 425.588 642.073 403.597 641.541 381.628C641.144 365.233 653.824 350.079 672.122 350.861C687.581 351.522 703.091 350.948 718.578 350.981C736.581 351.02 748.195 362.527 748.249 380.682C748.357 417.151 748.301 453.621 748.301 490.091C748.3 495.087 748.232 500.083 747.631 505.537C712.043 505.997 677.019 505.998 641.995 505.999Z" fill="#3E3E3E"/>
<path d="M368.022 505.55C332.81 506.011 297.689 506.01 262.149 506.052C261.624 500.784 261.432 495.473 261.424 490.162C261.391 466.199 261.41 442.236 261.41 417.674C267.449 417.202 273.363 416.469 279.292 416.325C301.756 415.78 324.223 415.287 346.691 415.128C350.703 415.099 355.019 416.109 358.682 417.769C365.015 420.64 368.607 424.986 368.37 433.174C367.676 457.128 368.117 481.114 368.022 505.55Z" fill="#3F3F3E"/>
<path d="M641.898 506.459C677.019 505.998 712.043 505.997 747.535 505.998C748.004 533.287 748.004 560.575 748.004 588.444C712.81 592.085 677.555 593.873 641.8 593.476C641.8 564.123 641.8 535.521 641.898 506.459Z" fill="#242324"/>
<path d="M406.029 466.613C403.034 462.08 400.239 457.4 397.005 453.044C387.876 440.746 378.533 428.608 369.345 416.353C365.069 410.651 359.335 407.239 352.377 407.121C314.732 406.485 277.092 406.495 239.815 412.935C227.266 415.103 217.198 422.285 207.44 429.916C204.964 431.853 202.531 433.844 200.057 435.827C195.42 428.831 193.257 428.284 185.736 431.936C184.093 432.733 182.432 433.491 180.399 434.141C180.019 434.015 179.999 434 179.999 434C195.053 410.295 213.686 391.679 243.631 388.987C249.247 388.483 254.829 387.616 261.279 386.864C276.673 385.916 291.206 384.48 305.758 384.253C326.743 383.926 347.834 382.31 368.645 386.786C379.263 391.545 385.746 400.569 392.382 409.527C406.114 428.068 420.012 446.487 433.862 464.94C434.238 465.441 434.854 465.762 435.714 466.671C443.663 477.613 451.217 488.078 458.903 498.446C459.705 499.528 461.197 500.301 462.527 500.751C467.156 502.316 471.854 503.676 476.661 505.443C477.857 507.053 478.992 508.281 479.966 509.626C485.321 517.012 485.203 527.04 479.72 534.36C474.072 541.9 464.368 544.765 455.669 541.459C447.029 538.175 440.701 529.67 442.305 520.873C443.586 513.845 440.266 509.974 436.026 505.524C426.977 493.143 418.01 481.08 408.975 469.068C408.227 468.073 407.022 467.423 406.029 466.613ZM466.505 515.668C465.224 515.433 463.943 515.004 462.661 514.999C458.897 514.985 456.917 517.289 456.269 520.696C455.595 524.245 457.252 526.917 460.455 528.279C463.698 529.658 466.765 528.859 468.719 525.845C471.029 522.282 470.28 518.942 466.505 515.668Z" fill="#0BB7D0"/>
<path d="M799.245 645.805C799.592 645.351 799.939 644.897 800.653 644.026C801.243 643.362 801.465 643.114 801.691 642.868C810.186 633.634 822.427 632.653 831.518 640.476C839.914 647.7 841.117 660.743 834.177 669.308C826.766 678.456 813.546 679.586 803.716 672.102C802.477 671.158 800.43 670.669 798.863 670.856C779.543 673.16 760.304 676.697 740.923 677.822C705.539 679.875 670.08 680.764 634.639 681.621C623.31 681.895 613.709 676.912 606.219 668.158C593.441 653.225 580.512 638.42 567.835 623.402C565.789 620.978 563.823 620.066 560.699 619.995C549.026 619.733 540.821 610.679 541.003 598.672C541.178 587.122 550.283 578.015 561.673 578C572.957 577.985 582.833 587.255 582.307 598.575C582.048 604.156 583.721 607.948 587.234 611.848C597.357 623.089 607.219 634.565 617.221 645.885C617.259 645.821 617.165 645.938 617.235 646.268C624.393 656.658 633.892 661.045 646.652 658.933C680.794 657.526 714.463 656.058 748.567 654.669C764.656 652.49 780.317 650.27 795.955 647.906C797.131 647.728 798.152 646.529 799.245 645.805ZM556.786 593.952C556.63 594.249 556.474 594.547 556.292 594.832C556.292 594.832 556.31 594.856 555.671 595.216C553.286 599.121 553.794 603.107 557.76 604.845C560.147 605.892 564.421 605.237 566.554 603.631C569.511 601.404 569.484 597.636 566.2 594.247C566.001 593.956 565.726 593.806 565.035 593.162C562.281 591.36 559.682 591.298 557.293 593.832C557.293 593.832 557.305 593.858 556.786 593.952ZM812.026 652.102C811.713 652.861 811.294 653.596 811.105 654.385C810.125 658.457 811.936 661.225 815.585 662.637C819.27 664.062 823.305 662.077 824.577 658.61C825.893 655.023 824.324 650.634 820.495 649.815C818.051 649.292 815.159 650.864 812.026 652.102Z" fill="#0BB7D0"/>
<path d="M476.642 446.221C472.499 458.443 463.149 464.403 452.147 462.152C440.375 459.744 434.061 450.804 434.756 437.971C434.852 436.209 434.073 434.027 432.96 432.628C410.575 404.479 388.042 376.447 365.642 348.31C361.07 342.567 355.46 339.383 348.072 339.489C329.088 339.764 310.104 339.996 291.121 340.333C284.295 340.454 277.473 340.845 270.647 341.076C265.631 341.245 261.453 342.093 257.566 346.393C250.038 354.722 236.102 353.907 228.004 345.639C220.107 337.576 220.225 324.618 228.271 316.308C236.184 308.135 249.972 307.659 258.03 315.636C260.392 317.974 262.46 318.656 265.785 318.57C294.745 317.824 323.711 317.123 352.678 316.991C364.098 316.938 373.445 322.402 380.651 331.303C393.958 347.741 407.281 364.166 420.53 380.65C430.127 392.591 439.553 404.67 449.226 416.548C450.541 418.164 452.78 419.862 454.708 420.01C470.164 421.203 478.138 430.355 476.642 446.221ZM461.625 445.613C463.743 440.9 462.989 437.332 459.348 435.327C455.919 433.438 452.789 434.151 450.487 437.144C448.005 440.372 448.285 443.972 451.354 446.508C454.384 449.012 457.945 449.529 461.003 445.996C461.003 445.996 460.97 445.949 461.625 445.613ZM248 326C248 326 247.951 326.029 247.659 325.338C242.842 323.029 239.492 323.641 237.447 327.385C235.635 330.702 236.07 333.87 239.03 336.279C242.159 338.825 245.64 338.743 248.407 335.867C251.471 332.682 251.585 329.168 248 326Z" fill="#0CB7D1"/>
<path d="M436.091 505.854C440.266 509.974 443.586 513.845 442.305 520.873C440.701 529.67 447.029 538.175 455.669 541.459C464.368 544.765 474.072 541.9 479.72 534.36C485.203 527.04 485.321 517.012 479.966 509.626C478.992 508.281 477.857 507.053 477.128 505.421C491.364 505.305 505.268 505.54 519.268 506.174C519.869 517.43 529.787 527.769 540.892 527.17C542.451 527.086 544.451 528.669 545.673 530.005C551.038 535.868 556.271 541.858 561.384 547.942C563.458 550.411 565.104 553.239 566.945 555.904C504.632 555.904 442.319 555.904 379.552 555.904C379.552 539.451 379.552 523.161 380.154 506.409C399.2 505.916 417.645 505.885 436.091 505.854Z" fill="#242627"/>
<path d="M519.172 505.775C505.268 505.54 491.364 505.305 476.993 505.092C471.854 503.676 467.156 502.316 462.527 500.751C461.197 500.301 459.705 499.527 458.903 498.446C451.217 488.078 443.663 477.613 436.027 466.854C449.938 466.681 463.892 466.963 477.846 466.946C499.793 466.92 521.739 466.629 543.686 466.565C570.974 466.486 598.261 466.525 625.549 466.512C626.857 466.512 628.165 466.512 630.122 466.512C630.122 479.608 630.122 492.348 629.565 505.539C608.344 505.989 587.681 505.938 567.018 506.075C565.119 506.088 563.227 507.299 561.233 507.525C562.962 494.818 549.359 483.558 537.961 484.995C528.266 486.218 521.209 493.678 519.172 505.775Z" fill="#3C3F3E"/>
<path d="M251.996 506.001C252.089 524.823 252.201 543.646 252.268 562.468C252.307 573.8 252.343 585.132 252.257 596.463C252.163 608.852 244.601 616.41 232.335 616.5C228.003 616.531 223.669 616.484 219.337 616.416C207.506 616.23 199.852 608.416 199.852 596.424C199.851 566.595 199.899 536.766 200.476 506.466C218.015 505.997 235.005 505.999 251.996 506.001Z" fill="#242324"/>
<path d="M757.577 506.055C757.489 494.246 757.369 482.437 757.32 470.628C757.257 455.643 757.203 440.658 757.237 425.673C757.269 411.685 764.474 404.499 778.461 404.361C782.623 404.32 786.787 404.254 790.948 404.333C802.198 404.548 809.997 412.376 810.004 423.696C810.023 450.836 809.917 477.975 809.329 505.574C791.723 506.04 774.65 506.048 757.577 506.055Z" fill="#424241"/>
<path d="M252.095 505.541C235.005 505.999 218.015 505.997 200.563 506.006C200.047 487.204 199.968 468.391 200 449.579C200.002 448.411 200.57 446.919 201.398 446.125C213.617 434.411 226.355 423.545 243.813 420.398C249.782 419.323 251.567 420.396 252.066 426.651C252.37 430.459 252.211 434.307 252.211 438.136C252.214 460.451 252.202 482.766 252.095 505.541Z" fill="#3D3D3D"/>
<path d="M368.662 386.369C347.834 382.31 326.743 383.926 305.758 384.253C291.206 384.48 276.673 385.916 261.724 386.738C261.615 382.19 261.403 377.608 262.307 373.259C265.048 360.082 276.378 351.095 289.931 351.044C306.411 350.983 322.893 351.018 339.373 351.101C355.722 351.184 366.888 361.585 368.311 377.974C368.541 380.624 368.562 383.292 368.662 386.369Z" fill="#3C4040"/>
<path d="M757.461 506.507C774.65 506.048 791.723 506.04 809.245 506.038C809.809 514.368 809.947 522.691 810.011 531.015C810.018 531.955 809.878 533.087 809.36 533.81C800.645 545.973 792.195 558.348 782.971 570.116C776.778 578.017 769.123 584.526 757.346 586.817C757.346 559.98 757.346 533.469 757.461 506.507Z" fill="#252324"/>
<path d="M746.839 645.759C713.17 647.226 679.501 648.693 645.287 649.793C644.219 648.555 643.698 647.683 643.133 646.401C642.45 639.324 641.81 632.657 641.313 625.717C641.473 625.036 641.49 624.629 641.912 624.204C655.603 624.133 668.896 624.301 682.176 623.961C693.629 623.667 705.069 622.838 716.511 622.163C727.103 621.539 737.689 620.806 748.287 620.452C748.417 621.2 748.54 621.616 748.662 622.033C748.613 626.053 748.565 630.073 748.498 634.932C748.092 638.487 747.706 641.204 747.157 644.202C746.943 644.908 746.891 645.333 746.839 645.759Z" fill="#202728"/>
<path d="M561.332 507.954C563.227 507.299 565.119 506.088 567.018 506.075C587.681 505.938 608.344 505.989 629.472 506C629.936 522.541 629.936 539.071 629.936 556.059C619.699 556.059 609.794 556.059 599.089 555.959C597.349 555.249 596.205 554.815 595.499 554.001C584.615 541.433 573.656 528.925 563.09 516.094C561.521 514.189 561.87 510.706 561.332 507.954Z" fill="#242324"/>
<path d="M191.929 506.012C191.994 525.808 192.204 545.605 192.042 565.399C191.987 572.118 186.192 577.495 179.417 577.909C176.101 578.111 172.763 577.999 169.435 577.962C160.419 577.861 154.823 572.457 154.762 563.322C154.638 544.518 154.729 525.712 155.302 506.436C167.891 505.981 179.91 505.996 191.929 506.012Z" fill="#252324"/>
<path d="M817.741 505.937C817.653 490.136 817.367 474.333 817.563 458.535C817.654 451.186 823.148 446.402 830.601 446.209C833.428 446.136 836.259 446.205 839.089 446.188C849.49 446.122 855.024 451.587 855.058 462.153C855.104 476.468 855.048 490.782 854.49 505.551C841.876 505.983 829.809 505.96 817.741 505.937Z" fill="#424241"/>
<path d="M818.929 566.777C819.536 564.767 819.913 562.651 820.79 560.767C824.727 552.315 828.835 543.944 832.809 535.509C833.585 533.861 834.138 532.088 834.622 530.326C835.468 527.246 835.613 524.114 832.193 522.553C828.87 521.036 826.469 522.846 824.661 525.616C822.663 528.677 820.657 531.733 818.312 534.79C817.817 525.479 817.665 516.169 817.627 506.398C829.809 505.96 841.876 505.983 854.403 506.014C854.944 523.849 855.144 541.675 855.052 559.5C855.01 567.704 849.29 573.477 841.127 573.265C834.198 573.084 826.592 575.358 820.392 568.77C819.642 567.809 819.285 567.293 818.929 566.777Z" fill="#242627"/>
<path d="M192.02 505.55C179.91 505.996 167.891 505.981 155.398 505.975C154.833 493.164 154.531 480.339 154.723 467.522C154.851 458.992 160.539 453.861 169.141 453.687C171.64 453.637 174.139 453.612 176.638 453.614C186.456 453.621 192.035 459.124 192.106 469.101C192.19 481.096 192.116 493.093 192.02 505.55Z" fill="#3E3E3E"/>
<path d="M436.026 505.524C417.645 505.885 399.2 505.916 380.272 505.95C379.789 493.03 379.789 480.107 379.789 466.586C388.229 466.586 396.648 466.586 405.548 466.599C407.022 467.423 408.227 468.073 408.975 469.068C418.01 481.08 426.977 493.143 436.026 505.524Z" fill="#3C3F3E"/>
<path d="M180.032 434.024C179.893 434.534 179.741 435.035 179.589 435.536C179.354 435.447 179.12 435.358 178.885 435.27C179.1 434.882 179.316 434.495 179.765 434.054C179.999 434 180.019 434.015 180.032 434.024Z" fill="#0BB7D0"/>
<path d="M466.841 515.885C470.28 518.942 471.029 522.282 468.719 525.845C466.765 528.859 463.699 529.658 460.455 528.279C457.252 526.917 455.595 524.245 456.269 520.695C456.917 517.289 458.897 514.985 462.661 514.999C463.943 515.004 465.224 515.433 466.841 515.885Z" fill="#202728"/>
<path d="M773.309 611.905C766.276 613.561 759.322 616.036 752.196 616.716C733.246 618.525 714.238 619.917 695.222 620.797C677.626 621.611 659.989 621.834 642.372 621.769C630.693 621.726 621.482 616.012 614.107 607.148C604.146 595.174 594.142 583.235 584.163 571.275C572.593 557.41 561.027 543.541 549.465 529.669C546.903 526.594 543.966 524.827 539.641 524.768C530.271 524.64 523.031 515.896 522.063 506.373C521.104 496.933 531.234 487.108 539.162 487.001C548.987 486.869 562.011 495.659 558.999 508.872C558.168 512.516 559.09 514.827 561.291 517.4C580.252 539.567 599.122 561.812 618.067 583.992C621.516 588.03 625.284 591.796 628.728 595.836C633.28 601.176 639.502 603.586 645.959 603.646C663.406 603.808 680.912 603.847 698.299 602.603C720.383 601.023 742.373 598.132 764.836 596.221C763.92 603.846 766.356 609.064 773.309 611.905ZM533.994 507.052L533.98 507.44C533.98 507.44 534.339 507.566 534.39 508.29C536.096 511.685 538.903 513.445 542.493 512.136C545.525 511.03 547.904 508.784 546.988 504.177C545.961 500.434 543.453 498.704 539.645 499.045C536.723 499.306 535.191 501.152 534.22 505.505C534.235 505.992 534.251 506.479 533.994 507.052Z" fill="#03B8D3"/>
<path d="M771.764 611.757C764.447 608.963 762.01 603.745 763.351 596.11C773.854 591.678 782.168 584.641 789.286 576.209C794.611 569.903 799.586 563.276 804.378 556.551C810.811 547.52 816.919 538.257 823.161 529.09C823.441 528.679 823.56 528.048 823.935 527.831C825.668 526.827 827.465 525.933 829.24 525C829.617 526.838 830.698 528.878 830.238 530.475C828.915 535.068 827.38 539.695 825.19 543.926C818.753 556.369 812.372 568.874 805.194 580.891C797.221 594.239 787.789 606.423 771.764 611.757Z" fill="#03BCD7"/>
<path d="M521.952 616.966C530.892 627.246 539.517 637.321 548.127 647.408C559.332 660.536 570.525 673.675 582.009 686.977C588.458 694.345 594.436 701.714 600.85 708.683C604.983 713.173 610.645 715.029 616.693 714.915C647.001 714.34 677.307 713.671 707.61 712.877C709.128 712.837 710.99 711.654 712.043 710.44C719.82 701.478 733.642 700.395 742.521 708.219C751.055 715.74 751.56 729.927 743.592 738.308C735.51 746.809 721.465 746.878 713.207 738.191C711.121 735.997 709.163 735.546 706.27 735.629C677.464 736.458 648.655 737.251 619.841 737.683C609.43 737.839 599.243 736.096 590.019 729.864C589.675 729.803 589.659 729.839 589.53 729.518C582.492 721.731 575.583 714.266 568.673 706.8C568.673 706.8 568.592 706.957 568.569 706.55C560.921 697.362 553.295 688.581 545.669 679.801C545.669 679.801 545.584 679.962 545.571 679.553C543.766 676.958 542.029 674.724 540.174 672.594C530.354 661.316 520.504 650.064 510.665 638.803C510.665 638.803 510.64 638.797 510.66 638.791C508.602 636.036 506.664 633.163 504.373 630.605C503.531 629.664 501.834 628.958 500.567 629.015C491.075 629.442 484.075 625.389 480.149 616.959C476.33 608.759 477.66 600.84 483.666 593.503C484.118 593.101 484.377 592.922 484.668 592.428C496.599 584.79 505.957 585.235 514.026 593.624C518.588 598.366 520.111 604.044 519.724 610.554C519.603 612.579 520.954 614.692 521.952 616.966ZM722.577 727.589C723.178 728.093 723.778 728.597 724.803 729.689C728.394 731.93 731.555 731.027 733.872 727.877C736.224 724.681 735.974 721.442 732.249 718.184C728.094 715.82 724.691 716.272 721.85 721.352C722.062 723.229 722.275 725.106 722.577 727.589ZM501.116 601.239C497.264 600.105 494.346 601.363 492.589 604.895C491.045 607.998 491.397 610.876 494.799 613.717C499.578 615.905 502.964 615.184 504.931 611.559C506.871 607.984 505.619 604.22 501.116 601.239Z" fill="#0BB7D0"/>
<path d="M546.575 505.005C547.627 508.924 545.248 511.17 542.216 512.276C538.626 513.585 535.819 511.825 534.083 507.917C534.053 507.405 533.989 507.106 533.989 507.106C533.974 506.619 533.958 506.132 534.462 505.389C538.846 505.09 542.711 505.048 546.575 505.005Z" fill="#202728"/>
<path d="M546.643 504.661C542.711 505.048 538.846 505.09 534.599 505.046C534.914 501.292 536.447 499.446 539.369 499.185C543.177 498.844 545.685 500.574 546.643 504.661Z" fill="#3C4040"/>
<path d="M533.853 507.149C533.989 507.106 534.053 507.405 534.058 507.556C534.063 507.706 533.704 507.58 533.704 507.58C533.704 507.58 533.717 507.192 533.853 507.149Z" fill="#3C4040"/>
</svg>
